<svg width="5" height="18" viewBox="0 0 5 18" fill="none" xmlns="http://www.w3.org/2000/svg">
<path d="M2.71982 4.74477C3.65687 4.74477 4.36981 3.90389 4.36981 2.92753C4.36981 1.95117 3.65687 1.11029 2.71982 1.11029C1.78277 1.11029 1.06982 1.95117 1.06982 2.92753C1.06982 3.90389 1.78277 4.74477 2.71982 4.74477Z" fill="white" stroke="white" stroke-width="0.5"/>
<path d="M2.71982 11.0138C3.65687 11.0138 4.36981 10.1729 4.36981 9.19651C4.36981 8.22015 3.65687 7.37927 2.71982 7.37927C1.78277 7.37927 1.06982 8.22015 1.06982 9.19651C1.06982 10.1729 1.78277 11.0138 2.71982 11.0138Z" fill="white" stroke="white" stroke-width="0.5"/>
<path d="M2.71982 17.2827C3.65687 17.2827 4.36981 16.4418 4.36981 15.4654C4.36981 14.4891 3.65687 13.6482 2.71982 13.6482C1.78277 13.6482 1.06982 14.4891 1.06982 15.4654C1.06982 16.4418 1.78277 17.2827 2.71982 17.2827Z" fill="white" stroke="white" stroke-width="0.5"/>
</svg>
